<?xml version="1.0" standalone="no"?>
<!DOCTYPE svg PUBLIC "-//W3C//DTD SVG 20010904//EN"
 "http://www.w3.org/TR/2001/REC-SVG-20010904/DTD/svg10.dtd">
<svg version="1.0" xmlns="http://www.w3.org/2000/svg"
 width="900.000000pt" height="856.000000pt" viewBox="0 0 900.000000 856.000000"
 preserveAspectRatio="xMidYMid meet">

<g transform="translate(0.000000,856.000000) scale(0.100000,-0.100000)"
fill="#ffffff" stroke="none">
<path d="M6635 8550 c-127 -26 -241 -100 -455 -294 -104 -95 -190 -161 -250
-191 -142 -72 -323 -54 -606 60 -164 65 -173 62 -110 -46 84 -143 253 -274
406 -314 156 -41 334 7 464 126 74 67 103 110 160 240 74 166 160 239 283 239
76 0 261 -54 482 -142 100 -39 178 -65 183 -60 13 13 -6 55 -58 133 -113 171
-337 283 -499 249z"/>
<path d="M6717 7603 c-4 -7 -10 -69 -22 -248 -3 -38 -21 -275 -40 -525 -20
-250 -47 -603 -60 -785 -14 -181 -37 -476 -51 -655 -28 -367 -70 -916 -114
-1500 -17 -217 -33 -419 -36 -447 l-6 -53 -294 0 -294 0 0 1190 c0 655 -2
1190 -4 1190 -3 0 -81 -53 -173 -118 -164 -116 -815 -572 -1283 -900 -129 -91
-243 -172 -252 -180 -17 -14 -18 16 -20 592 l-3 607 -240 -169 c-132 -93 -460
-323 -730 -512 -269 -189 -548 -385 -620 -435 l-130 -92 -5 603 -5 602 -130
-90 c-71 -50 -173 -121 -225 -158 -116 -82 -400 -282 -953 -669 l-417 -293 0
-1204 0 -1204 -305 0 -305 0 0 -1075 0 -1075 4500 0 4500 0 0 1075 0 1075
-175 0 -175 0 0 620 0 620 -329 0 -330 0 -5 43 c-3 23 -15 184 -26 357 -26
415 -34 533 -75 1125 -19 275 -44 642 -55 815 -11 173 -40 610 -65 970 -25
360 -48 711 -52 780 l-8 125 -492 3 c-270 1 -494 -1 -496 -5z m-3897 -5153 l0
-630 -677 2 -678 3 -3 615 c-1 338 0 621 3 628 3 9 149 12 680 12 l675 0 0
-630z m2340 0 l0 -630 -677 2 -678 3 -3 628 -2 627 680 0 680 0 0 -630z m2370
0 l0 -630 -677 2 -678 3 -3 628 -2 627 680 0 680 0 0 -630z"/>
</g>
</svg>
